# xmcd
#
# Track frame offsets:
#	150
#	17087
#	30967
#	50470
#	66872
#	82587
#	100955
#	113867
#	126727
#	143525
#	157405
#	176880
#	193265
#	208962
#	227270
#	240192
#
# Disc length: 3374 seconds
#
# Revision: 1
# Processed by: cddbd v1.5.2PL0 Copyright (c) Steve Scherf et al.
# Submitted via: audiograbber 1.83.01
#
DISCID=d80d2c10
DTITLE=Various Artist - SC3008
DYEAR=1997
DGENRE=Country
TTITLE0=Kevin Sharp - She's Sure Taking It Well
TTITLE1=Sawyer Brown - Six Days On The Road
TTITLE2=John Michael Montgomery - I Miss You A Little
TTITLE3=Tanya Tucker - Little Things
TTITLE4=Little Texas - Bad For Us
TTITLE5=Alabama - Sad Lookin' Moon
TTITLE6=Emilio - I'd Love You To Love Me
TTITLE7=Mindy McGreedy - A Girls Gotta Do (What A Girls Gotta Do)
TTITLE8=Kevin Sharp - She's Sure Taking It Well (vocals)
TTITLE9=Sawyer Brown - Six Days On The Road (vocals)
TTITLE10=John Michael Montgomery - I Miss You A Little (vocals)
TTITLE11=Tanya Tucker - Little Things (vocals)
TTITLE12=Little Texas - Bad For Us (vocals)
TTITLE13=Alabama - Sad Lookin' Moon (vocals)
TTITLE14=Emilio - I'd Love You To Love Me (vocals)
TTITLE15=Mindy McCreedy  - A Girl's Gotta Do (What A Gotta Do) (vocals)
EXTD=
EXTT0=
EXTT1=
EXTT2=
EXTT3=
EXTT4=
EXTT5=
EXTT6=
EXTT7=
EXTT8=
EXTT9=
EXTT10=
EXTT11=
EXTT12=
EXTT13=
EXTT14=
EXTT15=
PLAYORDER=
